######## ######## ######## ##          ######## ########  ######## ######## 
##       ##       ##       ##          ##       ##     ## ##       ##       
##       ##       ##       ##          ##       ##     ## ##       ##       
######   ######   ######   ##          ######   ########  ######   ######   
##       ##       ##       ##          ##       ##   ##   ##       ##       
##       ##       ##       ##          ##       ##    ##  ##       ##       
##       ######## ######## ########    ##       ##     ## ######## ######## 


Genre:Comedy
 Language:English
 IMDb: 
http://www.imdb.com/title/tt1464174/
 Source:BluRay.720p.DTS.x264-CHD


 Format : MPEG-4
 Format profile : Base Media
 Codec ID : isom
 File size : 2.29 GiB
 Duration : 1h 52mn
 Overall bit rate : 2 899 Kbps


 Video
 Format profile : High@L4.1
 Format settings, CABAC : Yes
 Format settings, ReFrames : 3 frames
 Codec ID : avc1
 Codec ID/Info : Advanced Video Coding
 Duration : 1h 52mn
 Bit rate mode : Variable
 Bit rate : 2 500 Kbps
 Maximum bit rate : 13.7 Mbps
 Width : 1 280 pixels
 Height : 528 pixels
 Display aspect ratio : 2.40:1
 Frame rate mode : Constant
 Frame rate : 23.976 fps
 Color space : YUV
 Chroma subsampling : 4:2:0
 Bit depth : 8 bits
 Scan type : Progressive
 Bits/(Pixel*Frame) : 0.154
 Stream size : 1.95 GiB (85%)
 Writing library : x264 


 Audio
 ID : 2
 Format : AAC
 Format/Info : Advanced Audio Codec
 Format version : Version 4
 Format profile : LC
 Format settings, SBR : No
 Codec ID : 40
 Duration : 1h 52mn
 Bit rate mode : Variable
 Bit rate : 428 Kbps
 Maximum bit rate : 543 Kbps
 Channel(s) : 6 channels
 Channel positions : Front: L C R, Side: L R, LFE
 Sampling rate : 48.0 KHz
 Stream size : 346 MiB (15%)



 Plot:
 FBI agent Malcolm Turner and his stepson Trent go undercover at an all-girls performing arts school after Trent witnesses a murder.


Greets:

 INK,CRYS,IMAGINE,LKRG,FXG,3Li,FLAWL3SS,TA,iLLUSiON,ViSiON,DTRG SAFCuk009,LU,TheFalcon007,MYSTiC,PrisM,Noir,WBZ,LAP,Rx,Kingdom,SAFCuk009+Fabreezy,HDLiTE,TWiZTED,ExtraTorrentRG.ELEKTRI4KA,MAGNAT,CM8
 And to all the other p2p grps past and present




----------------------------------                   
http://thepiratebay.org/user/hiest
----------------------------------




Screenshots:
 
http://www.pix2links.com/images/28874456858725355306.png
 
http://www.pix2links.com/images/11913965954216161976.png
 
http://www.pix2links.com/images/39945229980734172712.png
 
http://www.pix2links.com/images/97086077957724314012.png
 
http://www.pix2links.com/images/23290282728176757783.png


######## ######## ######## ##          ######## ########  ######## ######## 
##       ##       ##       ##          ##       ##     ## ##       ##       
##       ##       ##       ##          ##       ##     ## ##       ##       
######   ######   ######   ##          ######   ########  ######   ######   
##       ##       ##       ##          ##       ##   ##   ##       ##       
##       ##       ##       ##          ##       ##    ##  ##       ##       
##       ######## ######## ########    ##       ##     ## ######## ######## 
